<?xml version="1.0" standalone="no"?>
<svg xmlns:xlink="http://www.w3.org/1999/xlink" id="wave" style="transform:rotate(0deg); transition: 0.3s" viewBox="0 0 1440 490" version="1.1" xmlns="http://www.w3.org/2000/svg"><defs><linearGradient id="sw-gradient-0" x1="0" x2="0" y1="1" y2="0"><stop stop-color="rgba(108, 124, 214, 1)" offset="0%"/><stop stop-color="rgba(255, 255, 255, 1)" offset="100%"/></linearGradient></defs><path style="transform:translate(0, 0px); opacity:1" fill="url(#sw-gradient-0)" d="M0,0L40,8.2C80,16,160,33,240,65.3C320,98,400,147,480,196C560,245,640,294,720,261.3C800,229,880,114,960,122.5C1040,131,1120,261,1200,277.7C1280,294,1360,196,1440,130.7C1520,65,1600,33,1680,49C1760,65,1840,131,1920,204.2C2000,278,2080,359,2160,383.8C2240,408,2320,376,2400,367.5C2480,359,2560,376,2640,359.3C2720,343,2800,294,2880,261.3C2960,229,3040,212,3120,220.5C3200,229,3280,261,3360,285.8C3440,310,3520,327,3600,351.2C3680,376,3760,408,3840,383.8C3920,359,4000,278,4080,212.3C4160,147,4240,98,4320,89.8C4400,82,4480,114,4560,114.3C4640,114,4720,82,4800,98C4880,114,4960,180,5040,171.5C5120,163,5200,82,5280,114.3C5360,147,5440,294,5520,318.5C5600,343,5680,245,5720,196L5760,147L5760,490L5720,490C5680,490,5600,490,5520,490C5440,490,5360,490,5280,490C5200,490,5120,490,5040,490C4960,490,4880,490,4800,490C4720,490,4640,490,4560,490C4480,490,4400,490,4320,490C4240,490,4160,490,4080,490C4000,490,3920,490,3840,490C3760,490,3680,490,3600,490C3520,490,3440,490,3360,490C3280,490,3200,490,3120,490C3040,490,2960,490,2880,490C2800,490,2720,490,2640,490C2560,490,2480,490,2400,490C2320,490,2240,490,2160,490C2080,490,2000,490,1920,490C1840,490,1760,490,1680,490C1600,490,1520,490,1440,490C1360,490,1280,490,1200,490C1120,490,1040,490,960,490C880,490,800,490,720,490C640,490,560,490,480,490C400,490,320,490,240,490C160,490,80,490,40,490L0,490Z"/><defs><linearGradient id="sw-gradient-1" x1="0" x2="0" y1="1" y2="0"><stop stop-color="rgba(166.371, 179.749, 255, 1)" offset="0%"/><stop stop-color="rgba(243.936, 243.936, 243.936, 1)" offset="100%"/></linearGradient></defs><path style="transform:translate(0, 50px); opacity:0.9" fill="url(#sw-gradient-1)" d="M0,49L40,49C80,49,160,49,240,89.8C320,131,400,212,480,261.3C560,310,640,327,720,302.2C800,278,880,212,960,212.3C1040,212,1120,278,1200,285.8C1280,294,1360,245,1440,220.5C1520,196,1600,196,1680,236.8C1760,278,1840,359,1920,343C2000,327,2080,212,2160,187.8C2240,163,2320,229,2400,261.3C2480,294,2560,294,2640,285.8C2720,278,2800,261,2880,212.3C2960,163,3040,82,3120,57.2C3200,33,3280,65,3360,89.8C3440,114,3520,131,3600,130.7C3680,131,3760,114,3840,89.8C3920,65,4000,33,4080,81.7C4160,131,4240,261,4320,326.7C4400,392,4480,392,4560,359.3C4640,327,4720,261,4800,253.2C4880,245,4960,294,5040,277.7C5120,261,5200,180,5280,163.3C5360,147,5440,196,5520,179.7C5600,163,5680,82,5720,40.8L5760,0L5760,490L5720,490C5680,490,5600,490,5520,490C5440,490,5360,490,5280,490C5200,490,5120,490,5040,490C4960,490,4880,490,4800,490C4720,490,4640,490,4560,490C4480,490,4400,490,4320,490C4240,490,4160,490,4080,490C4000,490,3920,490,3840,490C3760,490,3680,490,3600,490C3520,490,3440,490,3360,490C3280,490,3200,490,3120,490C3040,490,2960,490,2880,490C2800,490,2720,490,2640,490C2560,490,2480,490,2400,490C2320,490,2240,490,2160,490C2080,490,2000,490,1920,490C1840,490,1760,490,1680,490C1600,490,1520,490,1440,490C1360,490,1280,490,1200,490C1120,490,1040,490,960,490C880,490,800,490,720,490C640,490,560,490,480,490C400,490,320,490,240,490C160,490,80,490,40,490L0,490Z"/></svg>