<?xml version="1.0" standalone="no"?>
<svg xmlns:xlink="http://www.w3.org/1999/xlink" id="wave" style="transform:rotate(0deg); transition: 0.3s" viewBox="0 0 1440 490" version="1.1" xmlns="http://www.w3.org/2000/svg"><defs><linearGradient id="sw-gradient-0" x1="0" x2="0" y1="1" y2="0"><stop stop-color="rgba(108, 124, 214, 1)" offset="0%"/><stop stop-color="rgba(255, 255, 255, 1)" offset="100%"/></linearGradient></defs><path style="transform:translate(0, 0px); opacity:1" fill="url(#sw-gradient-0)" d="M0,0L26.7,16.3C53.3,33,107,65,160,73.5C213.3,82,267,65,320,49C373.3,33,427,16,480,49C533.3,82,587,163,640,220.5C693.3,278,747,310,800,285.8C853.3,261,907,180,960,179.7C1013.3,180,1067,261,1120,253.2C1173.3,245,1227,147,1280,98C1333.3,49,1387,49,1440,49C1493.3,49,1547,49,1600,114.3C1653.3,180,1707,310,1760,318.5C1813.3,327,1867,212,1920,155.2C1973.3,98,2027,98,2080,114.3C2133.3,131,2187,163,2240,220.5C2293.3,278,2347,359,2400,351.2C2453.3,343,2507,245,2560,212.3C2613.3,180,2667,212,2720,245C2773.3,278,2827,310,2880,285.8C2933.3,261,2987,180,3040,171.5C3093.3,163,3147,229,3200,228.7C3253.3,229,3307,163,3360,179.7C3413.3,196,3467,294,3520,326.7C3573.3,359,3627,327,3680,310.3C3733.3,294,3787,294,3813,294L3840,294L3840,490L3813.3,490C3786.7,490,3733,490,3680,490C3626.7,490,3573,490,3520,490C3466.7,490,3413,490,3360,490C3306.7,490,3253,490,3200,490C3146.7,490,3093,490,3040,490C2986.7,490,2933,490,2880,490C2826.7,490,2773,490,2720,490C2666.7,490,2613,490,2560,490C2506.7,490,2453,490,2400,490C2346.7,490,2293,490,2240,490C2186.7,490,2133,490,2080,490C2026.7,490,1973,490,1920,490C1866.7,490,1813,490,1760,490C1706.7,490,1653,490,1600,490C1546.7,490,1493,490,1440,490C1386.7,490,1333,490,1280,490C1226.7,490,1173,490,1120,490C1066.7,490,1013,490,960,490C906.7,490,853,490,800,490C746.7,490,693,490,640,490C586.7,490,533,490,480,490C426.7,490,373,490,320,490C266.7,490,213,490,160,490C106.7,490,53,490,27,490L0,490Z"/></svg>