<?xml version="1.0" standalone="no"?><svg xmlns="http://www.w3.org/2000/svg" viewBox="0 0 1440 320"><path fill="#6c7cd6" fill-opacity="1" d="M0,64L40,90.7C80,117,160,171,240,181.3C320,192,400,160,480,149.3C560,139,640,149,720,176C800,203,880,245,960,256C1040,267,1120,245,1200,202.7C1280,160,1360,96,1400,64L1440,32L1440,320L1400,320C1360,320,1280,320,1200,320C1120,320,1040,320,960,320C880,320,800,320,720,320C640,320,560,320,480,320C400,320,320,320,240,320C160,320,80,320,40,320L0,320Z"></path></svg>